<svg xmlns="http://www.w3.org/2000/svg" width="1320" height="800" viewBox="0 0 1320 800" role="img" aria-labelledby="title desc">
<title id="title">모바일 디지털 지갑 · 담당 기능 흐름</title><desc id="desc">웹과 모바일 요청에 대해 로그인·인증, 회원·지갑·거래 API, 데이터 저장, SMS·푸시 알림 기능을 연결하는 일반화된 담당 기능 설명도.</desc>
<!-- Technology icons: Devicon (MIT); functional icons: Lucide (ISC). See accompanying license files. -->
<defs><marker id="arrow" viewBox="0 0 10 10" refX="9" refY="5" markerWidth="8" markerHeight="8" orient="auto-start-reverse"><path d="M 0 0 L 10 5 L 0 10 Z" fill="#20252c"/></marker><marker id="arrow-start" viewBox="0 0 10 10" refX="1" refY="5" markerWidth="8" markerHeight="8" orient="auto"><path d="M 10 0 L 0 5 L 10 10 Z" fill="#20252c"/></marker><symbol id="icon-android" viewBox="0 0 128 128"><g ><path xmlns="http://www.w3.org/2000/svg" fill="#fff" d="M21.012 91.125c-5.538.003-10.038-4.503-10.039-10.04l-.002-30.739c-.002-5.532 4.497-10.037 10.028-10.038 2.689-.002 5.207 1.041 7.105 2.937s2.942 4.418 2.944 7.099l-.003 30.74a9.924 9.924 0 01-2.931 7.094 9.962 9.962 0 01-7.102 2.947m-.008-48.12c-4.053-.002-7.338 3.291-7.339 7.341l.005 30.736a7.347 7.347 0 007.341 7.348 7.338 7.338 0 007.339-7.347V50.342a7.345 7.345 0 00-7.346-7.337" /><path xmlns="http://www.w3.org/2000/svg" fill="#fff" d="M99.742 44.527l-2.698-.001-66.119.009-2.699.001-.002-2.699c-.006-11.08 6.03-21.385 15.917-27.473l-3.844-7.017c-.47-.822-.588-1.863-.314-2.815a3.732 3.732 0 011.814-2.239 3.605 3.605 0 011.759-.447c1.362 0 2.609.739 3.267 1.933l4.023 7.329a37.842 37.842 0 0113.099-2.305c4.606-.002 9.023.777 13.204 2.311l4.017-7.341a3.711 3.711 0 013.263-1.932 3.712 3.712 0 011.761.438A3.706 3.706 0 0188 4.524a3.69 3.69 0 01-.318 2.832l-3.842 7.013c9.871 6.101 15.9 16.398 15.899 27.459l.003 2.699zM80.196 15.403l5.123-9.355a1.019 1.019 0 10-1.783-.981l-5.176 9.45c-4.354-1.934-9.229-3.021-14.382-3.016-5.142-.005-10.008 1.078-14.349 3.005l-5.181-9.429a1.009 1.009 0 00-1.379-.405c-.497.266-.68.891-.403 1.379l5.125 9.348c-10.07 5.194-16.874 15.084-16.868 26.439l66.118-.008c.003-11.351-6.789-21.221-16.845-26.427M48.94 29.86a2.772 2.772 0 01.003-5.545 2.78 2.78 0 012.775 2.774 2.775 2.775 0 01-2.778 2.771m30.107-.006a2.767 2.767 0 01-2.772-2.771 2.788 2.788 0 012.773-2.778 2.79 2.79 0 012.767 2.779 2.769 2.769 0 01-2.768 2.77m-27.336 96.305c-5.533-.001-10.036-4.501-10.037-10.038l-.002-13.567-2.638.003a10.453 10.453 0 01-7.448-3.082 10.437 10.437 0 01-3.083-7.452l-.01-47.627v-2.701h2.699l65.623-.01 2.7-.002v2.699l.007 47.633c.001 5.809-4.725 10.536-10.532 10.535l-2.654.002.003 13.562c0 5.534-4.502 10.039-10.033 10.039a9.933 9.933 0 01-7.098-2.937 9.952 9.952 0 01-2.947-7.096v-13.568H61.75v13.565c-.002 5.535-4.503 10.043-10.039 10.042" /><path xmlns="http://www.w3.org/2000/svg" fill="#fff" d="M31.205 92.022a7.82 7.82 0 007.831 7.837h5.333l.006 16.264c-.001 4.05 3.289 7.341 7.335 7.342a7.342 7.342 0 007.338-7.348l.001-16.259 9.909-.003-.001 16.263c.004 4.051 3.298 7.346 7.343 7.338 4.056.003 7.344-3.292 7.343-7.344l-.005-16.259 5.353-.001c4.319.001 7.832-3.508 7.832-7.837l-.009-47.635-65.621.012.012 47.63zm75.791-.91c-5.536.001-10.039-4.498-10.038-10.036l-.008-30.738c.002-5.537 4.498-10.041 10.031-10.041 5.54-.001 10.046 4.502 10.045 10.038l.003 30.736c.001 5.534-4.498 10.042-10.033 10.041m-.01-48.116c-4.053-.004-7.337 3.287-7.337 7.342l.003 30.737a7.336 7.336 0 007.342 7.34 7.338 7.338 0 007.338-7.343l-.008-30.736a7.335 7.335 0 00-7.338-7.34" /><path xmlns="http://www.w3.org/2000/svg" fill="#A4C439" d="M21.004 43.005c-4.053-.002-7.338 3.291-7.339 7.341l.005 30.736a7.338 7.338 0 007.342 7.343 7.33 7.33 0 007.338-7.342V50.342a7.345 7.345 0 00-7.346-7.337m59.192-27.602l5.123-9.355a1.023 1.023 0 00-.401-1.388 1.022 1.022 0 00-1.382.407l-5.175 9.453c-4.354-1.938-9.227-3.024-14.383-3.019-5.142-.005-10.013 1.078-14.349 3.005l-5.181-9.429a1.01 1.01 0 00-1.378-.406 1.007 1.007 0 00-.404 1.38l5.125 9.349c-10.07 5.193-16.874 15.083-16.868 26.438l66.118-.008c.003-11.351-6.789-21.221-16.845-26.427M48.94 29.86a2.772 2.772 0 01.003-5.545 2.78 2.78 0 012.775 2.774 2.775 2.775 0 01-2.778 2.771m30.107-.006a2.77 2.77 0 01-2.772-2.771 2.793 2.793 0 012.773-2.778 2.79 2.79 0 012.767 2.779 2.767 2.767 0 01-2.768 2.77M31.193 44.392l.011 47.635a7.822 7.822 0 007.832 7.831l5.333.002.006 16.264c-.001 4.05 3.291 7.342 7.335 7.342 4.056 0 7.342-3.295 7.343-7.347l-.004-16.26 9.909-.003.004 16.263c0 4.047 3.293 7.346 7.338 7.338 4.056.003 7.344-3.292 7.343-7.344l-.005-16.259 5.352-.004a7.835 7.835 0 007.836-7.834l-.009-47.635-65.624.011zm83.134 5.943a7.338 7.338 0 00-7.341-7.339c-4.053-.004-7.337 3.287-7.337 7.342l.006 30.738a7.334 7.334 0 007.339 7.339 7.337 7.337 0 007.338-7.343l-.005-30.737z" /></g></symbol><symbol id="icon-cloud" viewBox="0 0 24 24"><g fill="none" stroke="currentColor" stroke-width="2" stroke-linecap="round" stroke-linejoin="round"><path xmlns="http://www.w3.org/2000/svg" d="M17.5 19H9a7 7 0 1 1 6.71-9h1.79a4.5 4.5 0 1 1 0 9Z" />
</g></symbol><symbol id="icon-database" viewBox="0 0 24 24"><g fill="none" stroke="currentColor" stroke-width="2" stroke-linecap="round" stroke-linejoin="round"><ellipse xmlns="http://www.w3.org/2000/svg" cx="12" cy="5" rx="9" ry="3" />
  <path xmlns="http://www.w3.org/2000/svg" d="M3 5V19A9 3 0 0 0 21 19V5" />
  <path xmlns="http://www.w3.org/2000/svg" d="M3 12A9 3 0 0 0 21 12" />
</g></symbol><symbol id="icon-globe" viewBox="0 0 24 24"><g fill="none" stroke="currentColor" stroke-width="2" stroke-linecap="round" stroke-linejoin="round"><circle xmlns="http://www.w3.org/2000/svg" cx="12" cy="12" r="10" />
  <path xmlns="http://www.w3.org/2000/svg" d="M12 2a14.5 14.5 0 0 0 0 20 14.5 14.5 0 0 0 0-20" />
  <path xmlns="http://www.w3.org/2000/svg" d="M2 12h20" />
</g></symbol><symbol id="icon-java" viewBox="0 0 128 128"><g ><path xmlns="http://www.w3.org/2000/svg" fill="#0074BD" d="M47.617 98.12s-4.767 2.774 3.397 3.71c9.892 1.13 14.947.968 25.845-1.092 0 0 2.871 1.795 6.873 3.351-24.439 10.47-55.308-.607-36.115-5.969zm-2.988-13.665s-5.348 3.959 2.823 4.805c10.567 1.091 18.91 1.18 33.354-1.6 0 0 1.993 2.025 5.132 3.131-29.542 8.64-62.446.68-41.309-6.336z" /><path xmlns="http://www.w3.org/2000/svg" fill="#EA2D2E" d="M69.802 61.271c6.025 6.935-1.58 13.17-1.58 13.17s15.289-7.891 8.269-17.777c-6.559-9.215-11.587-13.792 15.635-29.58 0 .001-42.731 10.67-22.324 34.187z" /><path xmlns="http://www.w3.org/2000/svg" fill="#0074BD" d="M102.123 108.229s3.529 2.91-3.888 5.159c-14.102 4.272-58.706 5.56-71.094.171-4.451-1.938 3.899-4.625 6.526-5.192 2.739-.593 4.303-.485 4.303-.485-4.953-3.487-32.013 6.85-13.743 9.815 49.821 8.076 90.817-3.637 77.896-9.468zM49.912 70.294s-22.686 5.389-8.033 7.348c6.188.828 18.518.638 30.011-.326 9.39-.789 18.813-2.474 18.813-2.474s-3.308 1.419-5.704 3.053c-23.042 6.061-67.544 3.238-54.731-2.958 10.832-5.239 19.644-4.643 19.644-4.643zm40.697 22.747c23.421-12.167 12.591-23.86 5.032-22.285-1.848.385-2.677.72-2.677.72s.688-1.079 2-1.543c14.953-5.255 26.451 15.503-4.823 23.725 0-.002.359-.327.468-.617z" /><path xmlns="http://www.w3.org/2000/svg" fill="#EA2D2E" d="M76.491 1.587S89.459 14.563 64.188 34.51c-20.266 16.006-4.621 25.13-.007 35.559-11.831-10.673-20.509-20.07-14.688-28.815C58.041 28.42 81.722 22.195 76.491 1.587z" /><path xmlns="http://www.w3.org/2000/svg" fill="#0074BD" d="M52.214 126.021c22.476 1.437 57-.8 57.817-11.436 0 0-1.571 4.032-18.577 7.231-19.186 3.612-42.854 3.191-56.887.874 0 .001 2.875 2.381 17.647 3.331z" /></g></symbol><symbol id="icon-spring" viewBox="0 0 128 128"><g ><path xmlns="http://www.w3.org/2000/svg" d="M116.452 6.643a59.104 59.104 0 01-6.837 12.136A64.249 64.249 0 0064.205-.026C28.984-.026 0 28.982 0 64.242a64.316 64.316 0 0019.945 46.562l2.368 2.1a64.22 64.22 0 0041.358 15.122c33.487 0 61.637-26.24 64.021-59.683 1.751-16.371-3.051-37.077-11.24-61.7zM29.067 111.17a5.5 5.5 0 01-4.269 2.034c-3.018 0-5.487-2.484-5.487-5.502 0-3.017 2.485-5.501 5.487-5.501 1.25 0 2.485.433 3.452 1.234 2.351 1.9 2.718 5.384.817 7.735zm87.119-19.238c-15.843 21.122-49.68 14.003-71.376 15.02 0 0-3.852.234-7.721.867 0 0 1.45-.617 3.335-1.334 15.226-5.301 22.43-6.335 31.685-11.086 17.427-8.869 34.654-28.274 38.24-48.463-6.637 19.422-26.75 36.11-45.077 42.895-12.557 4.635-35.238 9.136-35.238 9.136l-.917-.484c-15.442-7.518-15.91-40.977 12.157-51.78 12.291-4.735 24.048-2.134 37.323-5.302 14.175-3.367 30.568-14.004 37.238-27.874 7.471 22.19 16.46 56.932.35 78.405z" fill="#77bc1f" /></g></symbol></defs>
<rect width="1320" height="800" fill="#fff"/>
<g font-family="Segoe UI, Apple SD Gothic Neo, Malgun Gothic, sans-serif"><text x="660" y="49" text-anchor="middle" font-size="28" font-weight="700" fill="#20252c">모바일 디지털 지갑 · 담당 기능 흐름</text><rect x="22" y="163" width="192" height="371" rx="22" fill="#fff" stroke="#20252c" stroke-width="3"/><text x="118.0" y="197" text-anchor="middle" font-size="23" font-weight="700" fill="#20252c">사용자 요청</text><use href="#icon-globe" x="89.5" y="236" width="57" height="57" color="#2855bf"/><text x="118" y="322" text-anchor="middle" font-size="22" font-weight="700" fill="#20252c">Web</text><use href="#icon-android" x="89.5" y="389" width="57" height="57" color="#20252c"/><text x="118" y="475" text-anchor="middle" font-size="22" font-weight="700" fill="#20252c">Mobile</text><rect x="389" y="99" width="535" height="412" rx="22" fill="#fff" stroke="#20252c" stroke-width="3"/><text x="656.5" y="133" text-anchor="middle" font-size="23" font-weight="700" fill="#20252c">Java · Spring Boot 백엔드</text><use href="#icon-java" x="552" y="154" width="61" height="61" color="#20252c"/><use href="#icon-spring" x="662" y="154" width="61" height="61" color="#20252c"/><rect x="422" y="255" width="219" height="193" rx="22" fill="#f5f8fd" stroke="#c9d6e8" stroke-width="1.5"/><text x="531.5" y="289" text-anchor="middle" font-size="23" font-weight="700" fill="#20252c">로그인 · 인증</text><text x="531" y="336" text-anchor="middle" font-size="21" font-weight="700" fill="#20252c">SSE · QR 로그인</text><text x="531" y="382" text-anchor="middle" font-size="19" font-weight="400" fill="#20252c">거래 · 스테이킹 인증</text><rect x="671" y="255" width="219" height="193" rx="22" fill="#f5f8fd" stroke="#c9d6e8" stroke-width="1.5"/><text x="780.5" y="289" text-anchor="middle" font-size="23" font-weight="700" fill="#20252c">서비스 API</text><text x="780" y="336" text-anchor="middle" font-size="21" font-weight="700" fill="#20252c">회원 · 프로필</text><text x="780" y="382" text-anchor="middle" font-size="21" font-weight="400" fill="#20252c">지갑 · 연락처</text><path d="M 224 328 L 379 328" fill="none" stroke="#20252c" stroke-width="2.8" stroke-linejoin="round" marker-end="url(#arrow)" marker-start="url(#arrow-start)"/><rect x="245.5" y="274" width="111" height="25" rx="3" fill="#fff"/><text x="301" y="292" text-anchor="middle" font-size="18" font-weight="400" fill="#20252c">암호화 통신</text><text x="301" y="368" text-anchor="middle" font-size="20" font-weight="400" fill="#52627b">RSA 기반</text><rect x="1093" y="160" width="202" height="209" rx="22" fill="#fff" stroke="#20252c" stroke-width="3"/><text x="1194.0" y="194" text-anchor="middle" font-size="23" font-weight="700" fill="#20252c">데이터 저장</text><use href="#icon-database" x="1162.5" y="220" width="63" height="63" color="#2855bf"/><text x="1194" y="312" text-anchor="middle" font-size="22" font-weight="700" fill="#20252c">PostgreSQL</text><path d="M 934 269 L 1083 269" fill="none" stroke="#20252c" stroke-width="2.8" stroke-linejoin="round" marker-end="url(#arrow)" marker-start="url(#arrow-start)"/><rect x="952.5" y="219" width="111" height="25" rx="3" fill="#fff"/><text x="1008" y="237" text-anchor="middle" font-size="18" font-weight="400" fill="#20252c">데이터 처리</text><rect x="442" y="602" width="430" height="145" rx="22" fill="#fff" stroke="#20252c" stroke-width="3"/><text x="657.0" y="636" text-anchor="middle" font-size="23" font-weight="700" fill="#20252c">알림 기능</text><use href="#icon-cloud" x="480" y="663" width="50" height="50" color="#2855bf"/><text x="680" y="697" text-anchor="middle" font-size="25" font-weight="700" fill="#20252c">SMS · FCM 푸시</text><path d="M 657 521 L 657 591" fill="none" stroke="#20252c" stroke-width="2.8" stroke-linejoin="round" marker-end="url(#arrow)"/><rect x="688.0" y="543" width="94" height="25" rx="3" fill="#fff"/><text x="735" y="561" text-anchor="middle" font-size="18" font-weight="400" fill="#20252c">알림 처리</text><path d="M 432 674 L 118 674 L 118 544" fill="none" stroke="#20252c" stroke-width="2.8" stroke-linejoin="round" marker-end="url(#arrow)"/><rect x="169.5" y="630" width="189" height="25" rx="3" fill="#fff"/><text x="264" y="648" text-anchor="middle" font-size="18" font-weight="400" fill="#20252c">사용자에게 알림 전달</text><text x="657" y="487" text-anchor="middle" font-size="21" font-weight="400" fill="#52627b">통신 암호화 · 입력값 검증</text></g></svg>